<?xml version="1.0" encoding="UTF-8" standalone="no"?>
<svg
   viewBox="0 0 24 24"
   version="1.1"
   id="svg930"
   sodipodi:docname="alpha-adots.svg"
   inkscape:version="1.1 (c68e22c387, 2021-05-23)"
   xmlns:inkscape="http://www.inkscape.org/namespaces/inkscape"
   xmlns:sodipodi="http://sodipodi.sourceforge.net/DTD/sodipodi-0.dtd"
   xmlns="http://www.w3.org/2000/svg"
   xmlns:svg="http://www.w3.org/2000/svg">
  <defs
     id="defs934" />
  <sodipodi:namedview
     id="namedview932"
     pagecolor="#ffffff"
     bordercolor="#666666"
     borderopacity="1.0"
     inkscape:pageshadow="2"
     inkscape:pageopacity="0.0"
     inkscape:pagecheckerboard="0"
     showgrid="false"
     inkscape:zoom="31.375"
     inkscape:cx="14.85259"
     inkscape:cy="12"
     inkscape:window-width="1920"
     inkscape:window-height="1009"
     inkscape:window-x="1272"
     inkscape:window-y="-8"
     inkscape:window-maximized="1"
     inkscape:current-layer="svg930" />
  <path
     d="m 17.478088,7 a 2,2 0 0 0 -2,2 v 8 h 2 v -4 h 2 v 4 h 2 V 9 a 2,2 0 0 0 -2,-2 h -2 m 0,2 h 2 v 2 h -2 z"
     id="path928" />
  <path
     d="m 11.577689,15.346614 a 1.7011952,1.6175299 0 0 1 1.701196,-1.61753 1.7011952,1.6175299 0 0 1 1.701195,1.61753 1.7011952,1.6175299 0 0 1 -1.701195,1.61753 1.7011952,1.6175299 0 0 1 -1.701196,-1.61753 m -5.1035852,0 a 1.7011952,1.6175299 0 0 1 1.7011952,-1.61753 1.7011952,1.6175299 0 0 1 1.7011956,1.61753 1.7011952,1.6175299 0 0 1 -1.7011956,1.61753 1.7011952,1.6175299 0 0 1 -1.7011952,-1.61753 m -5.103586,0 a 1.7011952,1.6175299 0 0 1 1.7011952,-1.61753 1.7011952,1.6175299 0 0 1 1.7011956,1.61753 1.7011952,1.6175299 0 0 1 -1.7011956,1.61753 1.7011952,1.6175299 0 0 1 -1.7011952,-1.61753 z"
     id="path832"
     style="stroke-width:0.829418" />
</svg>
