<?xml version="1.0" encoding="UTF-8" standalone="no"?>
<svg
   viewBox="0 0 24 24"
   version="1.1"
   id="svg1110"
   sodipodi:docname="numeric-1dots.svg"
   inkscape:version="1.1 (c68e22c387, 2021-05-23)"
   xmlns:inkscape="http://www.inkscape.org/namespaces/inkscape"
   xmlns:sodipodi="http://sodipodi.sourceforge.net/DTD/sodipodi-0.dtd"
   xmlns="http://www.w3.org/2000/svg"
   xmlns:svg="http://www.w3.org/2000/svg">
  <defs
     id="defs1114" />
  <sodipodi:namedview
     id="namedview1112"
     pagecolor="#ffffff"
     bordercolor="#666666"
     borderopacity="1.0"
     inkscape:pageshadow="2"
     inkscape:pageopacity="0.0"
     inkscape:pagecheckerboard="0"
     showgrid="false"
     inkscape:zoom="31.375"
     inkscape:cx="9.5936255"
     inkscape:cy="12"
     inkscape:window-width="1920"
     inkscape:window-height="1009"
     inkscape:window-x="1272"
     inkscape:window-y="-8"
     inkscape:window-maximized="1"
     inkscape:current-layer="svg1110" />
  <path
     d="m 18,7 v 2 h 2 v 8 h 2 V 7 Z"
     id="path1108" />
  <path
     d="M 13.729084,15.38247 A 1.7011952,1.6175299 0 0 1 15.43028,13.76494 1.7011952,1.6175299 0 0 1 17.131475,15.38247 1.7011952,1.6175299 0 0 1 15.43028,17 1.7011952,1.6175299 0 0 1 13.729084,15.38247 m -5.1035863,0 A 1.7011952,1.6175299 0 0 1 10.326694,13.76494 1.7011952,1.6175299 0 0 1 12.027889,15.38247 1.7011952,1.6175299 0 0 1 10.326694,17 1.7011952,1.6175299 0 0 1 8.6254977,15.38247 m -5.1035855,0 A 1.7011952,1.6175299 0 0 1 5.2231074,13.76494 1.7011952,1.6175299 0 0 1 6.924303,15.38247 1.7011952,1.6175299 0 0 1 5.2231074,17 1.7011952,1.6175299 0 0 1 3.5219122,15.38247 Z"
     id="path832"
     style="stroke-width:0.829418" />
</svg>
